<?xml version="1.0" encoding="utf-8"?>
<!-- Generator: Adobe Illustrator 19.1.1, SVG Export Plug-In . SVG Version: 6.00 Build 0)  -->
<svg version="1.1" xmlns="http://www.w3.org/2000/svg" xmlns:xlink="http://www.w3.org/1999/xlink" x="0px" y="0px"
	 viewBox="-434 224.5 90.1 112.5" style="enable-background:new -434 224.5 90.1 112.5;" xml:space="preserve">
<style type="text/css">
	.st0{display:none;}
	.st1{display:inline;}
	.st2{stroke:#00FF30;stroke-width:12;stroke-linecap:round;stroke-linejoin:round;stroke-miterlimit:10;}
	.st3{stroke:#000000;stroke-width:12;stroke-miterlimit:10;}
	.st4{fill:none;stroke:#FFFFFF;stroke-linecap:round;stroke-linejoin:round;stroke-miterlimit:10;}
	.st5{fill:#FFFFFF;stroke:#FFFFFF;stroke-miterlimit:10;}
</style>
<g id="Layer_1" class="st0">
	<path class="st1" d="M-352.9,250.1c-0.4-1.4-1.3-2.6-2.4-3.4c0.1-0.1,0.1-0.1,0.2-0.2c5.6-5.5-3-14.1-8.6-8.6
		c-4.3,4.2-8.7,8.5-13,12.7c-3.8,1.1-7.6,2.2-11.4,3.3c0,0,0,0,0,0c2.8-2.3,4.8-5.6,5.5-9.4c-2.6-0.2-6.9,4.7-7.5,1.7
		c-0.5-2.7,5.8-4.9,7.8-5.5c-0.4-7.8-6.4-14.4-14.4-15.3c-8.9-1-16.9,5.5-17.9,14.4c-0.8,7.8,3.9,14.8,11.1,17.2
		c2.4,4,7.1,14.1,6,28.7c-0.1,0.1-0.1,0.2-0.2,0.3c-1.7,3.3-3.5,6.6-5.2,9.8c-4.3-1.9-8.7-3.8-13-5.7c-3-1.3-6.5-0.9-8.3,2.2
		c-1.5,2.6-0.9,7,2.2,8.3c6.3,2.8,12.5,5.5,18.8,8.3c2.9,1.3,6.6,1,8.3-2.2c1.9-3.5,3.7-7,5.6-10.6c0.2,0,0.4,0,0.7,0
		c5.5-0.6,11.1-1.3,16.6-1.9c1,5,2,10.1,2.9,15.1c0.6,3.3,4.5,5.1,7.5,4.2c3.4-0.9,4.9-4.2,4.3-7.5c-1.3-6.7-2.6-13.4-3.9-20.1
		c-0.5-2.4-3.4-4.8-5.9-4.5c-1,0.1-1.9,0.2-2.9,0.3c-0.8-4.6-2.4-9.9-5.5-15.1c1.8-1.7,3.5-3.4,5.3-5.2c4.4-1.3,8.9-2.6,13.3-3.9
		C-354,256.7-352,253.3-352.9,250.1z M-387.6,236c1-0.3,2.3,0.1,2.6,1.4c0.3,1.4-1.2,0.9-1.9,1.1c-0.9,0.3-1.7,2.3-2.4,0.4
		C-390.1,236.7-387.6,236-387.6,236z M-396,238.2c-0.9,0.2-1.5-0.8-1-1.6c0.5-0.8,0.4-1.7,0.4-1.7s0.3,0.8,1,1.4
		C-395,236.9-395.2,238-396,238.2z M-394.6,234.2c-0.9,0.2-1.5-0.8-1-1.6c0.5-0.8,0.4-1.7,0.4-1.7s0.3,0.8,1,1.4
		C-393.6,232.9-393.8,234-394.6,234.2z"/>
</g>
<g id="Layer_2">
	<line class="st2" x1="-401" y1="304" x2="-419.3" y2="295.8"/>
	<line class="st2" x1="-401" y1="304" x2="-392.3" y2="288.3"/>
	<line class="st2" x1="-379" y1="288.3" x2="-367" y2="286.5"/>
	<line class="st2" x1="-367" y1="286.5" x2="-363.2" y2="306.8"/>
	<path class="st3" d="M-391,256L-391,256c-3.3,0.9-12.7-9.1-7-2.8l4.7,11.8c0.5,1.2,0.8,2.4,1.1,3.6c0.5,1.9,1.1,4.7,1.1,4.9l0,13.5
		c-1.1,3.7-0.1,3.7,3.1,2.8l7.6-1.1c3-0.9-0.9-1.5,0.5-1.3c1.3,0.2,4.8-4.9,3.3-8.9l-6.8-18.2C-384.3,257-387.7,255.1-391,256z"/>
	<line class="st2" x1="-391.8" y1="260.8" x2="-359" y2="252.1"/>
	<line class="st2" x1="-381.8" y1="264.8" x2="-359" y2="242.3"/>
	<circle class="st3" cx="-398.3" cy="241.3" r="10.4"/>
	<path class="st4" d="M-390.6,229.3"/>
	<path class="st4" d="M-394.1,236.6"/>
	<path class="st5" d="M-400.2,236c-0.3-4.7-0.9,1.7-1.2,3.5c-0.1,0.8,2.1,0.8,1.9,0.1C-400.1,237.9-400.2,236.7-400.2,236z"/>
	<path class="st5" d="M-396.8,236.4c-0.2-2.4-0.5,0.8-0.6,1.7c-0.1,0.4,1,0.4,1,0.1C-396.7,237.4-396.8,236.7-396.8,236.4z"/>
</g>
</svg>
